<svg width="38" height="38" viewBox="0 0 38 38" fill="none" xmlns="http://www.w3.org/2000/svg">
<path d="M27.3125 29.6875C26.0966 29.6886 24.8954 29.4223 23.7939 28.9077C22.6923 28.393 21.7174 27.6425 20.938 26.7093C21.9967 29.1109 23.2535 31.4202 24.6952 33.6134C25.2439 34.4447 24.6477 35.625 23.655 35.625H14.345C13.3499 35.625 12.7537 34.4447 13.3047 33.6134C14.7465 31.4202 16.0033 29.1109 17.062 26.7093C16.1553 27.7929 14.9874 28.6275 13.6685 29.1343C12.3496 29.641 10.9233 29.8033 9.52434 29.6057C8.12534 29.4081 6.79979 28.8572 5.67287 28.0049C4.54596 27.1527 3.65487 26.0273 3.08375 24.7349C2.51264 23.4426 2.28035 22.0261 2.40883 20.619C2.53731 19.212 3.0223 17.8609 3.81802 16.6934C4.61374 15.5259 5.69392 14.5805 6.95655 13.9464C8.21918 13.3124 9.62259 13.0106 11.0342 13.0697C10.6642 11.8289 10.5891 10.5189 10.8149 9.24405C11.0407 7.96916 11.5612 6.76465 12.3349 5.72652C13.1086 4.68839 14.1141 3.84534 15.2713 3.26456C16.4284 2.68379 17.7053 2.38135 19 2.38135C20.2947 2.38135 21.5716 2.68379 22.7287 3.26456C23.8859 3.84534 24.8914 4.68839 25.6651 5.72652C26.4388 6.76465 26.9593 7.96916 27.1851 9.24405C27.4109 10.5189 27.3358 11.8289 26.9657 13.0697C28.0708 13.0239 29.1738 13.1991 30.2103 13.585C31.2468 13.9709 32.1958 14.5598 33.0018 15.3171C33.8078 16.0744 34.4546 16.985 34.9043 17.9954C35.3539 19.0059 35.5974 20.0959 35.6205 21.2016C35.6436 22.3074 35.4458 23.4066 35.0387 24.4349C34.6315 25.4632 34.0233 26.4 33.2496 27.1903C32.4759 27.9806 31.5522 28.6085 30.5327 29.0373C29.5133 29.4661 28.4185 29.6872 27.3125 29.6875V29.6875Z" fill="black"/>
</svg>
