<svg width="38" height="38" viewBox="0 0 38 38" fill="none" xmlns="http://www.w3.org/2000/svg">
<path d="M5.81875 17.575L17.1 2.53411C17.3212 2.23914 17.6081 1.99973 17.9379 1.83484C18.2676 1.66995 18.6313 1.58411 19 1.58411C19.3687 1.58411 19.7323 1.66995 20.0621 1.83484C20.3919 1.99973 20.6788 2.23914 20.9 2.53411L32.1813 17.575C32.4896 17.9861 32.6562 18.4861 32.6562 19C32.6562 19.5139 32.4896 20.0139 32.1813 20.425L20.9 35.4659C20.6788 35.7608 20.3919 36.0002 20.0621 36.1651C19.7323 36.33 19.3687 36.4159 19 36.4159C18.6313 36.4159 18.2676 36.33 17.9379 36.1651C17.6081 36.0002 17.3212 35.7608 17.1 35.4659L5.81875 20.425C5.51042 20.0139 5.34375 19.5139 5.34375 19C5.34375 18.4861 5.51042 17.9861 5.81875 17.575Z" fill="#C83000"/>
</svg>
