<svg width="38" height="38" viewBox="0 0 38 38" fill="none" xmlns="http://www.w3.org/2000/svg">
<path d="M9.5 2.375C14.7488 2.375 19 6.54313 19 11.685C19 6.54313 23.2512 2.375 28.5 2.375C33.7488 2.375 38 6.54313 38 11.685C38 19.4346 30.3193 22.1683 19.931 34.504C19.8166 34.6395 19.6741 34.7484 19.5133 34.8231C19.3525 34.8978 19.1773 34.9365 19 34.9365C18.8227 34.9365 18.6475 34.8978 18.4867 34.8231C18.3259 34.7484 18.1834 34.6395 18.069 34.504C7.68075 22.1683 0 19.4346 0 11.685C0 6.54313 4.25125 2.375 9.5 2.375Z" fill="#C83000"/>
</svg>
