<svg width="38" height="38" viewBox="0 0 38 38" fill="none" xmlns="http://www.w3.org/2000/svg">
<path d="M17.062 26.7093C15.9666 28.0181 14.4949 28.958 12.8468 29.4013C11.1986 29.8446 9.45399 29.7699 7.8498 29.1873C6.24562 28.6046 4.85966 27.5423 3.88018 26.1447C2.9007 24.747 2.37518 23.0817 2.375 21.375C2.375 17.5703 5.0825 15.1216 8.6925 11.856C11.8418 9.006 15.6797 5.53375 19 0C22.3203 5.53375 26.1583 9.006 29.3075 11.856C32.9175 15.1216 35.625 17.5703 35.625 21.375C35.6248 23.0817 35.0993 24.747 34.1198 26.1447C33.1403 27.5423 31.7544 28.6046 30.1502 29.1873C28.546 29.7699 26.8014 29.8446 25.1532 29.4013C23.5051 28.958 22.0334 28.0181 20.938 26.7093C21.9967 29.1109 23.2535 31.4202 24.6952 33.6134C25.2439 34.4446 24.6478 35.625 23.655 35.625H14.345C13.3499 35.625 12.7538 34.4446 13.3048 33.6134C14.7465 31.4202 16.0033 29.1109 17.062 26.7093V26.7093Z" fill="black"/>
</svg>
